<?xml version="1.0" standalone="no"?>
<!DOCTYPE svg PUBLIC "-//W3C//DTD SVG 20010904//EN"
 "http://www.w3.org/TR/2001/REC-SVG-20010904/DTD/svg10.dtd">
<svg version="1.0" xmlns="http://www.w3.org/2000/svg"
 width="1800.000000pt" height="1800.000000pt" viewBox="0 0 1800.000000 1800.000000"
 preserveAspectRatio="xMidYMid meet">

<g transform="translate(0.000000,1800.000000) scale(0.100000,-0.100000)"
fill="#000000" stroke="none">
<path d="M9750 13055 c-44 -53 -240 -156 -530 -278 -85 -36 -228 -99 -318
-141 -89 -42 -188 -83 -219 -92 -77 -22 -158 -14 -258 26 -76 30 -82 31 -140
20 -197 -38 -476 -167 -828 -382 -43 -26 -81 -48 -84 -48 -3 0 -17 -8 -31 -19
-15 -10 -83 -48 -152 -84 l-126 -66 -259 21 c-197 15 -272 18 -310 10 -27 -5
-145 -46 -262 -91 -277 -106 -590 -210 -783 -261 -85 -22 -171 -46 -191 -53
-82 -27 -917 -352 -914 -355 13 -13 651 163 1055 291 375 120 448 137 567 137
37 0 61 7 96 30 104 65 229 115 374 147 94 21 411 24 543 6 47 -7 110 -15 140
-18 l55 -6 65 56 c93 80 163 110 305 135 66 11 161 31 210 44 112 29 787 245
798 255 10 10 -245 51 -318 51 l-60 0 25 20 c33 26 72 25 274 -5 92 -14 183
-25 202 -25 50 0 136 31 281 103 70 35 200 94 288 132 246 105 372 166 472
228 50 31 100 57 112 57 40 0 275 -81 561 -193 450 -177 1147 -488 1135 -507
-3 -4 -42 3 -88 17 -168 52 -304 105 -887 348 -398 166 -496 199 -707 239
l-68 13 -210 -107 c-115 -59 -363 -185 -550 -281 -187 -95 -457 -233 -600
-306 -143 -73 -324 -166 -402 -205 -78 -40 -141 -73 -139 -75 2 -2 131 30 287
72 156 41 348 92 425 112 l142 36 28 -22 c36 -28 172 -150 194 -174 16 -16 18
-16 38 10 39 52 127 171 142 193 8 12 20 28 25 34 6 6 24 28 40 50 28 36 31
38 75 33 58 -6 370 -56 391 -63 21 -6 29 13 45 111 21 126 30 175 36 180 3 3
79 -19 168 -50 90 -30 169 -55 176 -55 8 0 76 29 151 65 102 49 144 64 163 60
46 -11 1645 -446 1660 -451 21 -8 -19 -38 -132 -99 -142 -77 -138 -72 -138
-168 0 -45 3 -98 6 -119 l6 -36 71 24 c90 30 147 65 172 103 48 73 149 94 455
94 317 0 410 -22 614 -146 71 -43 142 -85 158 -93 25 -13 69 -13 342 -4 334
12 455 5 506 -27 114 -73 176 -107 252 -137 82 -33 293 -102 386 -126 24 -6
51 -14 60 -17 9 -3 -2 8 -26 26 -23 17 -48 42 -53 55 -8 18 -30 30 -81 46
-135 43 -189 74 -218 129 -10 19 -10 25 1 33 10 7 9 8 -5 4 -11 -4 -48 3 -82
14 -67 23 -97 45 -47 35 15 -3 -4 8 -44 24 -40 16 -80 36 -88 45 -9 9 -29 16
-43 16 -27 0 -69 23 -84 44 -5 7 -60 10 -159 8 -122 -2 -172 -8 -248 -27 -158
-41 -229 -32 -307 37 -22 19 -55 40 -74 48 -199 76 -561 303 -723 454 -32 30
-47 31 -172 11 -189 -31 -310 -40 -375 -27 -62 11 -325 121 -740 307 -685 309
-1051 453 -1347 530 -112 29 -136 31 -153 10z m-1585 -675 c-9 -15 -65 -42
-77 -38 -6 2 4 14 23 26 36 23 65 29 54 12z"/>
<path d="M3610 9878 c-333 -650 -685 -1339 -783 -1530 l-178 -348 322 2 321 3
111 242 111 243 437 2 437 3 -130 248 -130 247 -160 0 c-132 0 -159 2 -156 14
5 23 423 906 428 906 3 0 221 -430 484 -955 l479 -955 314 0 314 0 -178 348
c-1410 2759 -1386 2712 -1413 2712 -24 0 -65 -76 -630 -1182z"/>
<path d="M7540 10083 c0 -1027 -2 -1077 -46 -1223 -21 -73 -77 -178 -121 -229
-44 -52 -151 -116 -228 -136 -32 -8 -100 -15 -150 -15 -74 0 -105 6 -174 30
-134 47 -197 106 -307 286 -9 16 -36 6 -277 -101 l-266 -118 14 -34 c21 -49
115 -190 164 -245 93 -104 258 -218 394 -272 212 -84 546 -99 775 -36 299 83
546 278 666 525 50 104 75 176 113 330 l27 110 3 1053 4 1052 -296 0 -295 0 0
-977z"/>
<path d="M11643 11046 c3 -8 263 -357 576 -775 l571 -761 470 0 470 0 -235
-313 -235 -314 337 -451 338 -451 488 -1 c268 0 487 1 487 3 0 5 -1306 1750
-1965 2625 l-340 452 -484 0 c-415 0 -482 -2 -478 -14z"/>
<path d="M9320 9828 c-333 -650 -685 -1339 -783 -1530 l-178 -348 322 2 321 3
111 242 111 243 437 2 437 3 -130 248 -130 247 -160 0 c-132 0 -159 2 -156 14
5 23 423 906 428 906 3 0 221 -430 484 -955 l479 -955 314 0 314 0 -178 348
c-1410 2759 -1386 2712 -1413 2712 -24 0 -65 -76 -630 -1182z"/>
<path d="M5277 7686 c-66 -25 -101 -61 -117 -124 -22 -88 19 -154 142 -227 77
-47 113 -79 128 -116 17 -41 -2 -83 -48 -105 -50 -23 -124 -6 -181 42 l-41 36
0 -59 0 -59 48 -23 c70 -35 158 -39 216 -11 78 37 117 119 95 204 -15 61 -49
96 -159 169 -106 70 -129 100 -110 147 24 58 134 67 210 16 l40 -26 0 54 0 54
-42 17 c-59 23 -135 28 -181 11z"/>
<path d="M14687 7686 c-75 -28 -117 -86 -117 -161 0 -79 32 -119 155 -198 115
-72 148 -129 110 -184 -39 -56 -138 -50 -220 13 l-46 35 3 -58 c3 -57 4 -58
46 -81 80 -45 194 -40 258 10 30 24 63 91 64 128 0 87 -45 148 -166 220 -93
57 -114 80 -114 126 0 77 120 100 209 41 l41 -27 0 54 0 54 -42 17 c-60 24
-135 28 -181 11z"/>
<path d="M2670 7361 l0 -331 50 0 50 0 -2 328 -3 327 -47 3 -48 3 0 -330z"/>
<path d="M3030 7361 l0 -331 45 0 45 0 0 251 0 250 218 -250 217 -250 43 0 42
-1 0 330 0 330 -45 0 -45 0 -2 -254 -3 -255 -220 252 c-208 238 -222 252 -258
255 l-37 3 0 -330z"/>
<path d="M3820 7688 c0 -20 282 -654 292 -656 9 -2 57 101 145 310 72 172 135
321 139 331 6 16 1 18 -42 15 l-49 -3 -94 -222 c-52 -123 -97 -223 -100 -223
-3 0 -49 100 -101 223 l-95 222 -47 3 c-27 2 -48 2 -48 0z"/>
<path d="M4590 7360 l0 -330 190 0 190 0 0 40 0 40 -140 0 -140 0 0 105 0 105
130 0 130 0 0 40 0 40 -130 0 -130 0 0 100 0 100 135 0 135 0 0 45 0 45 -185
0 -185 0 0 -330z"/>
<path d="M5690 7645 l0 -45 110 0 110 0 0 -285 0 -285 50 0 50 0 0 285 0 284
113 3 112 3 3 43 3 42 -275 0 -276 0 0 -45z"/>
<path d="M6440 7360 l0 -330 50 0 50 0 2 250 3 250 95 -120 c52 -66 100 -120
106 -120 6 0 55 56 110 125 l99 125 3 -255 2 -255 45 0 45 0 0 330 0 330 -43
0 -44 0 -108 -136 c-59 -74 -111 -132 -115 -127 -4 4 -53 65 -109 136 l-102
127 -44 0 -45 0 0 -330z"/>
<path d="M7307 7684 c-4 -4 -7 -153 -7 -331 l0 -323 195 0 195 0 0 40 0 40
-145 0 -145 0 0 105 0 105 135 0 135 0 0 40 0 40 -135 0 -135 0 0 100 0 99
138 3 137 3 0 40 0 40 -181 3 c-99 1 -183 -1 -187 -4z"/>
<path d="M7900 7360 l0 -330 45 0 45 0 2 251 3 251 219 -251 219 -251 44 0 43
0 -2 328 -3 327 -45 0 -45 0 -5 -249 -5 -250 -219 252 c-215 247 -221 252
-258 252 l-38 0 0 -330z"/>
<path d="M8714 7676 c-3 -8 -4 -27 -2 -43 l3 -28 113 -3 112 -3 0 -284 0 -285
50 0 50 0 0 285 0 284 113 3 112 3 0 40 0 40 -273 3 c-229 2 -273 0 -278 -12z"/>
<path d="M9840 7360 l0 -330 50 0 50 0 0 139 0 138 88 7 c59 4 101 14 132 29
112 55 133 201 41 289 -51 48 -91 58 -238 58 l-123 0 0 -330z m291 211 c19
-20 29 -40 29 -60 0 -80 -41 -111 -150 -111 l-70 0 0 100 0 100 81 0 c76 0 82
-2 110 -29z"/>
<path d="M10453 7378 c-73 -172 -135 -321 -139 -331 -6 -16 -1 -18 42 -15 l48
3 39 93 39 92 142 0 142 0 41 -92 42 -93 50 -3 50 -3 -51 113 c-29 62 -95 210
-148 328 l-97 215 -34 3 -34 3 -132 -313z m222 43 c25 -57 44 -105 42 -108 -3
-2 -47 -2 -100 -1 l-95 3 47 112 c25 61 49 108 53 105 3 -4 27 -54 53 -111z"/>
<path d="M11137 7683 c-4 -3 -7 -152 -7 -330 l0 -323 50 0 50 0 0 140 0 140
45 0 c41 0 50 -5 88 -44 23 -23 69 -86 102 -140 l59 -96 57 0 57 0 -90 135
c-49 74 -101 144 -116 156 -21 17 -24 23 -12 27 30 11 79 69 89 109 27 99 -31
194 -134 222 -43 12 -227 15 -238 4z m236 -95 c26 -14 49 -74 42 -109 -4 -16
-20 -40 -37 -54 -24 -21 -40 -25 -89 -25 l-59 0 0 106 0 107 62 -7 c34 -4 70
-12 81 -18z"/>
<path d="M11690 7645 l0 -45 110 0 110 0 0 -285 0 -285 50 0 50 0 0 285 0 285
115 0 115 0 0 45 0 45 -275 0 -275 0 0 -45z"/>
<path d="M12440 7361 l0 -331 45 0 45 0 2 249 3 250 218 -250 c216 -246 219
-249 258 -249 l39 0 0 330 0 330 -45 0 -45 0 0 -256 0 -256 -221 254 c-212
243 -222 253 -260 256 l-39 3 0 -330z"/>
<path d="M13310 7360 l0 -330 190 0 190 0 0 40 0 40 -145 0 -145 0 0 105 0
105 135 0 135 0 0 40 0 40 -135 0 -135 0 0 100 0 99 138 3 137 3 3 43 3 42
-185 0 -186 0 0 -330z"/>
<path d="M13907 7683 c-4 -3 -7 -152 -7 -330 l0 -323 50 0 50 0 0 140 0 140
45 0 c41 0 50 -5 88 -44 23 -23 69 -86 102 -140 l59 -96 57 0 57 0 -90 135
c-49 74 -101 144 -116 156 -21 17 -24 23 -12 27 30 11 79 69 89 109 27 99 -31
194 -134 222 -43 12 -227 15 -238 4z m236 -95 c26 -14 49 -74 42 -109 -4 -16
-20 -40 -37 -54 -24 -21 -40 -25 -89 -25 l-59 0 0 106 0 107 62 -7 c34 -4 70
-12 81 -18z"/>
<path d="M2670 6770 l0 -30 6135 0 6135 0 0 30 0 30 -6135 0 -6135 0 0 -30z"/>
</g>
</svg>
